/vscmnt/brussel_pixiu_data/_data_brussel/112/vsc11236/PredSimResults/SUBJ07mtu3D/weighted-LRposFixed/expIG/worker_02.mot
version=1
nRows=4
nColumns=50
inDegrees=yes
endheader
                time	         pelvis_tilt	         pelvis_list	     pelvis_rotation	           pelvis_tx	           pelvis_ty	           pelvis_tz	       hip_flexion_r	     hip_adduction_r	      hip_rotation_r	        knee_angle_r	       ankle_angle_r	         mtp_angle_r	       hip_flexion_l	     hip_adduction_l	      hip_rotation_l	        knee_angle_l	       ankle_angle_l	         mtp_angle_l	    lumbar_extension	      lumbar_bending	     lumbar_rotation	 ercspn_r/activation	 intobl_r/activation	 extobl_r/activation	    abd_r/activation	    add_r/activation	hamstrings_r/activation	bifemsh_r/activation	glut_max_r/activation	iliopsoas_r/activation	rect_fem_r/activation	  vasti_r/activation	gastroc_r/activation	 soleus_r/activation	tib_ant_r/activation	 ercspn_l/activation	 intobl_l/activation	 extobl_l/activation	    abd_l/activation	    add_l/activation	hamstrings_l/activation	bifemsh_l/activation	glut_max_l/activation	iliopsoas_l/activation	rect_fem_l/activation	  vasti_l/activation	gastroc_l/activation	 soleus_l/activation	tib_ant_l/activation	
          0.00000000	         -8.90619410	         -7.39214756	         10.14071775	          0.00000000	          0.89543716	         -0.00810081	        -14.91708610	         13.99059071	        -28.61050924	          1.99581431	        -13.83733480	          1.05473666	         28.76846245	          1.91795487	         10.28618511	        -35.55215602	          3.48938478	          9.91891904	         -3.02071395	         -1.26803484	         -3.68561285	          0.06442144	          0.07180742	          0.07338372	          0.00999999	          0.00999999	          0.31126371	          0.33430455	          0.25022541	          0.18754880	          0.01870542	          0.01205170	          0.00999999	          0.08801457	          0.07126149	          0.14524520	          0.11823297	          0.07550744	          0.08920240	          0.12388068	          0.10198085	          0.14564703	          0.03132403	          0.36415164	          0.51639753	          0.05985172	          0.05394958	          0.05047641	          0.31486332	
          0.01848432	         -8.62563375	         -6.95768374	         11.06659898	          0.01855273	          0.89104892	         -0.00969601	        -13.93914937	         12.50424730	        -29.04428967	         -2.96020140	        -13.73541259	          3.01947034	         28.93260294	          2.58580920	          9.51041359	        -31.74794926	          4.75231309	          7.81607265	         -4.28206782	         -1.91094936	         -3.10183728	          0.09814697	          0.05489561	          0.05610067	          0.00999999	          0.00999999	          0.23795609	          0.25557043	          0.19129329	          0.31021081	          0.01429999	          0.00999999	          0.10113595	          0.13786055	          0.05447826	          0.17393556	          0.09038720	          0.05772422	          0.07219345	          0.12993774	          0.19285795	          0.11134481	          0.02394671	          0.27838806	          0.39477758	          0.04575567	          0.04124359	          0.03858840	          0.28178540	
          0.03696865	         -8.28906890	         -6.50842698	         11.90822094	          0.03867515	          0.88396054	         -0.01107164	        -13.38538056	         11.10572641	        -29.01027208	         -7.88592007	        -13.99635208	          6.92797891	         28.67436913	          3.22961864	          8.81777842	        -27.87782354	          5.68984677	          6.16642886	         -5.29783236	         -2.64123566	         -2.44520075	          0.09433556	          0.04196681	          0.04288806	          0.00999999	          0.00999999	          0.18191359	          0.19537948	          0.14624063	          0.42343314	          0.01093211	          0.00999999	          0.09188505	          0.14581016	          0.04164775	          0.20530266	          0.06909956	          0.04412923	          0.08641294	          0.12622954	          0.26552283	          0.23291271	          0.01830688	          0.21282318	          0.30180110	          0.03497947	          0.03153006	          0.02950021	          0.24524539	
          0.05545297	         -7.89623081	         -6.10869880	         12.65672697	          0.06064430	          0.87454548	         -0.01222579	        -13.00904580	          9.82402129	        -28.56054784	        -12.97087743	        -14.23643294	         11.08450329	         28.10319880	          3.79322568	          8.16658820	        -25.36237911	          6.14040635	          4.83158966	         -5.98331556	         -3.42476631	         -1.72515028	          0.11498695	          0.03208295	          0.03278723	          0.00999999	          0.00999999	          0.13907001	          0.14936446	          0.11179861	          0.45875127	          0.00999999	          0.00999999	          0.08739399	          0.14522305	          0.03183903	          0.25736231	          0.05282550	          0.03373609	          0.18653225	          0.27676665	          0.30811307	          0.17805801	          0.01399531	          0.16269989	          0.23072207	          0.02674124	          0.02410422	          0.02255243	          0.26059069	
